# xmcd
#
# Track frame offsets:
# 150
# 12343
# 28613
# 39601
# 52736
# 70478
# 81048
# 97709
# 114456
# 128437
# 141254
# 149948
# 162105
# 181118
# 196768
# 211678
# 227651
# 243987
# 252207
# 266734
# 281457
# 290836
#
# Disc length: 4048 seconds
#
# Revision: 0
# Processed by: cddbd v1.5.1PL0 Copyright (c) Steve Scherf et al.
# Submitted via: Audion 3.0.2 (http://www.panic.com/audion/)
#
DISCID=330fce16
DTITLE=chuck jackson - tribute to rhythm and blues
DYEAR=1900
DGENRE=
TTITLE0=theme to the blues
TTITLE1=you dont know like i know
TTITLE2=a change is gonna come
TTITLE3=get out of my life woman
TTITLE4=sweet sixteen
TTITLE5=satisfaction
TTITLE6=all in my mind
TTITLE7=the love of my girl
TTITLE8=im so thankful
TTITLE9=somethings got a hold on me
TTITLE10=quarter to three
TTITLE11=ya ya
TTITLE12=gettin ready medley
TTITLE13=sunny
TTITLE14=634-5789
TTITLE15=hold on im comin
TTITLE16=blowing in the wind
TTITLE17=ive got to be strong
TTITLE18=where did she stay
TTITLE19=my baby loves me
TTITLE20=every man needs a down home girl
TTITLE21=theme to the blues pt2
EXTD=
EXTT0=
EXTT1=
EXTT2=
EXTT3=
EXTT4=
EXTT5=
EXTT6=
EXTT7=
EXTT8=
EXTT9=
EXTT10=
EXTT11=
EXTT12=
EXTT13=
EXTT14=
EXTT15=
EXTT16=
EXTT17=
EXTT18=
EXTT19=
EXTT20=
EXTT21=
PLAYORDER=
